<mxfile host="app.diagrams.net" agent="Mozilla/5.0 (Macintosh; Intel Mac OS X 10_15_7) AppleWebKit/537.36 (KHTML, like Gecko) Chrome/130.0.0.0 Safari/537.36" version="24.8.3" pages="8">
  <diagram id="4e3uA_6r-mzQ-KpXPNh-" name="01 - cities">
    <mxGraphModel dx="782" dy="721" grid="1" gridSize="10" guides="1" tooltips="1" connect="1" arrows="1" fold="1" page="1" pageScale="1" pageWidth="1920" pageHeight="1200" math="0" shadow="0">
      <root>
        <mxCell id="0" />
        <mxCell id="1" parent="0" />
        <mxCell id="ej6zyyzPEBs1Y0tk56cy-1" value="Database" style="rounded=0;whiteSpace=wrap;html=1;shadow=1;fontSize=22;fillColor=#d5e8d4;strokeColor=#82b366;" parent="1" vertex="1">
          <mxGeometry x="586" y="410" width="374" height="30" as="geometry" />
        </mxCell>
        <mxCell id="ej6zyyzPEBs1Y0tk56cy-2" value="" style="rounded=0;whiteSpace=wrap;html=1;shadow=1;fontSize=22;fillColor=#d5e8d4;strokeColor=#82b366;" parent="1" vertex="1">
          <mxGeometry x="586" y="440" width="374" height="180" as="geometry" />
        </mxCell>
        <mxCell id="ej6zyyzPEBs1Y0tk56cy-3" value="cities" style="rounded=0;whiteSpace=wrap;html=1;shadow=1;fontSize=20;fillColor=#ffe6cc;strokeColor=#d79b00;" parent="1" vertex="1">
          <mxGeometry x="598" y="450" width="350" height="25" as="geometry" />
        </mxCell>
        <mxCell id="ej6zyyzPEBs1Y0tk56cy-4" value="name&lt;br&gt;&lt;font style=&quot;font-size: 8px&quot;&gt;VARCHAR(50)&lt;/font&gt;" style="rounded=0;whiteSpace=wrap;html=1;shadow=1;fontSize=12;fillColor=#f5f5f5;strokeColor=#666666;fontColor=#333333;fontStyle=2" parent="1" vertex="1">
          <mxGeometry x="598" y="475" width="80" height="35" as="geometry" />
        </mxCell>
        <mxCell id="ej6zyyzPEBs1Y0tk56cy-5" value="country&lt;br&gt;&lt;span style=&quot;font-size: 8px&quot;&gt;VARCHAR(50)&lt;/span&gt;" style="rounded=0;whiteSpace=wrap;html=1;shadow=1;fontSize=12;fillColor=#f5f5f5;strokeColor=#666666;fontColor=#333333;fontStyle=2" parent="1" vertex="1">
          <mxGeometry x="678" y="475" width="80" height="35" as="geometry" />
        </mxCell>
        <mxCell id="ej6zyyzPEBs1Y0tk56cy-6" value="population&lt;br&gt;&lt;span style=&quot;font-size: 8px&quot;&gt;INTEGER&lt;/span&gt;" style="rounded=0;whiteSpace=wrap;html=1;shadow=1;fontSize=12;fillColor=#f5f5f5;strokeColor=#666666;fontColor=#333333;fontStyle=2" parent="1" vertex="1">
          <mxGeometry x="758" y="475" width="80" height="35" as="geometry" />
        </mxCell>
        <mxCell id="ej6zyyzPEBs1Y0tk56cy-7" value="area&lt;br&gt;&lt;span style=&quot;font-size: 8px&quot;&gt;INTEGER&lt;/span&gt;" style="rounded=0;whiteSpace=wrap;html=1;shadow=1;fontSize=12;fillColor=#f5f5f5;strokeColor=#666666;fontColor=#333333;fontStyle=2" parent="1" vertex="1">
          <mxGeometry x="838" y="475" width="110" height="35" as="geometry" />
        </mxCell>
        <mxCell id="ej6zyyzPEBs1Y0tk56cy-8" value="Tokyo" style="rounded=0;whiteSpace=wrap;html=1;shadow=1;fontSize=12;fontStyle=0" parent="1" vertex="1">
          <mxGeometry x="598" y="510" width="80" height="25" as="geometry" />
        </mxCell>
        <mxCell id="ej6zyyzPEBs1Y0tk56cy-9" value="Japan" style="rounded=0;whiteSpace=wrap;html=1;shadow=1;fontSize=12;fontStyle=0" parent="1" vertex="1">
          <mxGeometry x="678" y="510" width="80" height="25" as="geometry" />
        </mxCell>
        <mxCell id="ej6zyyzPEBs1Y0tk56cy-10" value="38505000" style="rounded=0;whiteSpace=wrap;html=1;shadow=1;fontSize=12;fontStyle=0" parent="1" vertex="1">
          <mxGeometry x="758" y="510" width="80" height="25" as="geometry" />
        </mxCell>
        <mxCell id="ej6zyyzPEBs1Y0tk56cy-11" value="8223" style="rounded=0;whiteSpace=wrap;html=1;shadow=1;fontSize=12;fontStyle=0" parent="1" vertex="1">
          <mxGeometry x="838" y="510" width="110" height="25" as="geometry" />
        </mxCell>
        <mxCell id="ej6zyyzPEBs1Y0tk56cy-12" value="Delhi" style="rounded=0;whiteSpace=wrap;html=1;shadow=1;fontSize=12;fontStyle=0" parent="1" vertex="1">
          <mxGeometry x="598" y="535" width="80" height="25" as="geometry" />
        </mxCell>
        <mxCell id="ej6zyyzPEBs1Y0tk56cy-13" value="India" style="rounded=0;whiteSpace=wrap;html=1;shadow=1;fontSize=12;fontStyle=0" parent="1" vertex="1">
          <mxGeometry x="678" y="535" width="80" height="25" as="geometry" />
        </mxCell>
        <mxCell id="ej6zyyzPEBs1Y0tk56cy-14" value="28125000" style="rounded=0;whiteSpace=wrap;html=1;shadow=1;fontSize=12;fontStyle=0" parent="1" vertex="1">
          <mxGeometry x="758" y="535" width="80" height="25" as="geometry" />
        </mxCell>
        <mxCell id="ej6zyyzPEBs1Y0tk56cy-15" value="2240" style="rounded=0;whiteSpace=wrap;html=1;shadow=1;fontSize=12;fontStyle=0" parent="1" vertex="1">
          <mxGeometry x="838" y="535" width="110" height="25" as="geometry" />
        </mxCell>
        <mxCell id="ej6zyyzPEBs1Y0tk56cy-16" value="Shanghai" style="rounded=0;whiteSpace=wrap;html=1;shadow=1;fontSize=12;fontStyle=0" parent="1" vertex="1">
          <mxGeometry x="598" y="560" width="80" height="25" as="geometry" />
        </mxCell>
        <mxCell id="ej6zyyzPEBs1Y0tk56cy-17" value="China" style="rounded=0;whiteSpace=wrap;html=1;shadow=1;fontSize=12;fontStyle=0" parent="1" vertex="1">
          <mxGeometry x="678" y="560" width="80" height="25" as="geometry" />
        </mxCell>
        <mxCell id="ej6zyyzPEBs1Y0tk56cy-18" value="22125000" style="rounded=0;whiteSpace=wrap;html=1;shadow=1;fontSize=12;fontStyle=0" parent="1" vertex="1">
          <mxGeometry x="758" y="560" width="80" height="25" as="geometry" />
        </mxCell>
        <mxCell id="ej6zyyzPEBs1Y0tk56cy-19" value="4015" style="rounded=0;whiteSpace=wrap;html=1;shadow=1;fontSize=12;fontStyle=0" parent="1" vertex="1">
          <mxGeometry x="838" y="560" width="110" height="25" as="geometry" />
        </mxCell>
        <mxCell id="ej6zyyzPEBs1Y0tk56cy-20" value="Sao Paulo" style="rounded=0;whiteSpace=wrap;html=1;shadow=1;fontSize=12;fontStyle=0" parent="1" vertex="1">
          <mxGeometry x="598" y="585" width="80" height="25" as="geometry" />
        </mxCell>
        <mxCell id="ej6zyyzPEBs1Y0tk56cy-21" value="Brazil" style="rounded=0;whiteSpace=wrap;html=1;shadow=1;fontSize=12;fontStyle=0" parent="1" vertex="1">
          <mxGeometry x="678" y="585" width="80" height="25" as="geometry" />
        </mxCell>
        <mxCell id="ej6zyyzPEBs1Y0tk56cy-22" value="20935000" style="rounded=0;whiteSpace=wrap;html=1;shadow=1;fontSize=12;fontStyle=0" parent="1" vertex="1">
          <mxGeometry x="758" y="585" width="80" height="25" as="geometry" />
        </mxCell>
        <mxCell id="ej6zyyzPEBs1Y0tk56cy-23" value="3043" style="rounded=0;whiteSpace=wrap;html=1;shadow=1;fontSize=12;fontStyle=0" parent="1" vertex="1">
          <mxGeometry x="838" y="585" width="110" height="25" as="geometry" />
        </mxCell>
      </root>
    </mxGraphModel>
  </diagram>
  <diagram id="WPvbViRh7FE2aKc_QRb9" name="02 - where">
    <mxGraphModel dx="715" dy="441" grid="1" gridSize="10" guides="1" tooltips="1" connect="1" arrows="1" fold="1" page="1" pageScale="1" pageWidth="1920" pageHeight="1200" math="0" shadow="0">
      <root>
        <mxCell id="AaGhEzn49VwoUiBBxyZU-0" />
        <mxCell id="AaGhEzn49VwoUiBBxyZU-1" parent="AaGhEzn49VwoUiBBxyZU-0" />
        <mxCell id="eYYFkC5M2LrtB64-ixSY-0" value="Database" style="rounded=0;whiteSpace=wrap;html=1;shadow=1;fontSize=22;fillColor=#d5e8d4;strokeColor=#82b366;" vertex="1" parent="AaGhEzn49VwoUiBBxyZU-1">
          <mxGeometry x="560" y="390" width="374" height="30" as="geometry" />
        </mxCell>
        <mxCell id="eYYFkC5M2LrtB64-ixSY-1" value="" style="rounded=0;whiteSpace=wrap;html=1;shadow=1;fontSize=22;fillColor=#d5e8d4;strokeColor=#82b366;" vertex="1" parent="AaGhEzn49VwoUiBBxyZU-1">
          <mxGeometry x="560" y="420" width="374" height="180" as="geometry" />
        </mxCell>
        <mxCell id="eYYFkC5M2LrtB64-ixSY-2" value="cities" style="rounded=0;whiteSpace=wrap;html=1;shadow=1;fontSize=20;fillColor=#ffe6cc;strokeColor=#d79b00;" vertex="1" parent="AaGhEzn49VwoUiBBxyZU-1">
          <mxGeometry x="572" y="430" width="350" height="25" as="geometry" />
        </mxCell>
        <mxCell id="eYYFkC5M2LrtB64-ixSY-3" value="name&lt;br&gt;&lt;font style=&quot;font-size: 8px&quot;&gt;VARCHAR(50)&lt;/font&gt;" style="rounded=0;whiteSpace=wrap;html=1;shadow=1;fontSize=12;fillColor=#f5f5f5;strokeColor=#666666;fontColor=#333333;fontStyle=2" vertex="1" parent="AaGhEzn49VwoUiBBxyZU-1">
          <mxGeometry x="572" y="455" width="80" height="35" as="geometry" />
        </mxCell>
        <mxCell id="eYYFkC5M2LrtB64-ixSY-6" value="area&lt;br&gt;&lt;span style=&quot;font-size: 8px&quot;&gt;INTEGER&lt;/span&gt;" style="rounded=0;whiteSpace=wrap;html=1;shadow=1;fontSize=12;fillColor=#f5f5f5;strokeColor=#666666;fontColor=#333333;fontStyle=2" vertex="1" parent="AaGhEzn49VwoUiBBxyZU-1">
          <mxGeometry x="812" y="455" width="110" height="35" as="geometry" />
        </mxCell>
        <mxCell id="eYYFkC5M2LrtB64-ixSY-7" value="Tokyo" style="rounded=0;whiteSpace=wrap;html=1;shadow=1;fontSize=12;fontStyle=0" vertex="1" parent="AaGhEzn49VwoUiBBxyZU-1">
          <mxGeometry x="572" y="490" width="80" height="25" as="geometry" />
        </mxCell>
        <mxCell id="eYYFkC5M2LrtB64-ixSY-10" value="8223" style="rounded=0;whiteSpace=wrap;html=1;shadow=1;fontSize=12;fontStyle=0" vertex="1" parent="AaGhEzn49VwoUiBBxyZU-1">
          <mxGeometry x="812" y="490" width="110" height="25" as="geometry" />
        </mxCell>
        <mxCell id="eYYFkC5M2LrtB64-ixSY-15" value="Shanghai" style="rounded=0;whiteSpace=wrap;html=1;shadow=1;fontSize=12;fontStyle=0" vertex="1" parent="AaGhEzn49VwoUiBBxyZU-1">
          <mxGeometry x="572" y="540" width="80" height="25" as="geometry" />
        </mxCell>
        <mxCell id="eYYFkC5M2LrtB64-ixSY-18" value="4015" style="rounded=0;whiteSpace=wrap;html=1;shadow=1;fontSize=12;fontStyle=0" vertex="1" parent="AaGhEzn49VwoUiBBxyZU-1">
          <mxGeometry x="812" y="540" width="110" height="25" as="geometry" />
        </mxCell>
        <mxCell id="pkKS2S7PdFpSrECyKQXo-2" style="edgeStyle=orthogonalEdgeStyle;rounded=0;orthogonalLoop=1;jettySize=auto;html=1;exitX=0.5;exitY=1;exitDx=0;exitDy=0;fontSize=18;" edge="1" parent="AaGhEzn49VwoUiBBxyZU-1" source="eYYFkC5M2LrtB64-ixSY-23">
          <mxGeometry relative="1" as="geometry">
            <mxPoint x="680" y="380" as="targetPoint" />
          </mxGeometry>
        </mxCell>
        <mxCell id="eYYFkC5M2LrtB64-ixSY-23" value="SELECT name, area" style="rounded=0;whiteSpace=wrap;html=1;fillColor=#dae8fc;strokeColor=#6c8ebf;fontSize=18;" vertex="1" parent="AaGhEzn49VwoUiBBxyZU-1">
          <mxGeometry x="470" y="270" width="173" height="50" as="geometry" />
        </mxCell>
        <mxCell id="pkKS2S7PdFpSrECyKQXo-0" style="edgeStyle=orthogonalEdgeStyle;rounded=0;orthogonalLoop=1;jettySize=auto;html=1;exitX=0.5;exitY=1;exitDx=0;exitDy=0;entryX=0.474;entryY=-0.113;entryDx=0;entryDy=0;entryPerimeter=0;fontSize=18;" edge="1" parent="AaGhEzn49VwoUiBBxyZU-1" source="eYYFkC5M2LrtB64-ixSY-24" target="eYYFkC5M2LrtB64-ixSY-0">
          <mxGeometry relative="1" as="geometry" />
        </mxCell>
        <mxCell id="eYYFkC5M2LrtB64-ixSY-24" value="FROM cities" style="rounded=0;whiteSpace=wrap;html=1;fillColor=#dae8fc;strokeColor=#6c8ebf;fontSize=18;" vertex="1" parent="AaGhEzn49VwoUiBBxyZU-1">
          <mxGeometry x="643" y="270" width="160" height="50" as="geometry" />
        </mxCell>
        <mxCell id="pkKS2S7PdFpSrECyKQXo-1" style="edgeStyle=orthogonalEdgeStyle;rounded=0;orthogonalLoop=1;jettySize=auto;html=1;exitX=0.5;exitY=1;exitDx=0;exitDy=0;fontSize=18;" edge="1" parent="AaGhEzn49VwoUiBBxyZU-1" source="eYYFkC5M2LrtB64-ixSY-25">
          <mxGeometry relative="1" as="geometry">
            <mxPoint x="780" y="380" as="targetPoint" />
          </mxGeometry>
        </mxCell>
        <mxCell id="eYYFkC5M2LrtB64-ixSY-25" value="WHERE area &amp;gt; 4000" style="rounded=0;whiteSpace=wrap;html=1;fillColor=#dae8fc;strokeColor=#6c8ebf;fontSize=18;" vertex="1" parent="AaGhEzn49VwoUiBBxyZU-1">
          <mxGeometry x="803" y="270" width="208" height="50" as="geometry" />
        </mxCell>
      </root>
    </mxGraphModel>
  </diagram>
  <diagram id="KuyZEUI8awvP4SvYcROS" name="03 - order">
    <mxGraphModel dx="601" dy="370" grid="1" gridSize="10" guides="1" tooltips="1" connect="1" arrows="1" fold="1" page="1" pageScale="1" pageWidth="1920" pageHeight="1200" math="0" shadow="0">
      <root>
        <mxCell id="NCR4u-MYzH2ishR-d2Pz-0" />
        <mxCell id="NCR4u-MYzH2ishR-d2Pz-1" parent="NCR4u-MYzH2ishR-d2Pz-0" />
        <mxCell id="Dm7EW4HvSjWJapq4ZpQy-0" value="SELECT name" style="rounded=0;whiteSpace=wrap;html=1;fillColor=#dae8fc;strokeColor=#6c8ebf;fontSize=18;" vertex="1" parent="NCR4u-MYzH2ishR-d2Pz-1">
          <mxGeometry x="500" y="430" width="160" height="50" as="geometry" />
        </mxCell>
        <mxCell id="Dm7EW4HvSjWJapq4ZpQy-1" value="FROM cities" style="rounded=0;whiteSpace=wrap;html=1;fillColor=#dae8fc;strokeColor=#6c8ebf;fontSize=18;" vertex="1" parent="NCR4u-MYzH2ishR-d2Pz-1">
          <mxGeometry x="660" y="430" width="160" height="50" as="geometry" />
        </mxCell>
        <mxCell id="Dm7EW4HvSjWJapq4ZpQy-2" value="WHERE area &amp;gt; 4000" style="rounded=0;whiteSpace=wrap;html=1;fillColor=#dae8fc;strokeColor=#6c8ebf;fontSize=18;" vertex="1" parent="NCR4u-MYzH2ishR-d2Pz-1">
          <mxGeometry x="820" y="430" width="208" height="50" as="geometry" />
        </mxCell>
        <mxCell id="Dm7EW4HvSjWJapq4ZpQy-4" value="" style="shape=curlyBracket;whiteSpace=wrap;html=1;rounded=1;fontSize=18;rotation=-90;" vertex="1" parent="NCR4u-MYzH2ishR-d2Pz-1">
          <mxGeometry x="570" y="418" width="20" height="160" as="geometry" />
        </mxCell>
        <mxCell id="Dm7EW4HvSjWJapq4ZpQy-5" value="" style="shape=curlyBracket;whiteSpace=wrap;html=1;rounded=1;fontSize=18;rotation=-90;" vertex="1" parent="NCR4u-MYzH2ishR-d2Pz-1">
          <mxGeometry x="730" y="418" width="20" height="160" as="geometry" />
        </mxCell>
        <mxCell id="Dm7EW4HvSjWJapq4ZpQy-6" value="" style="shape=curlyBracket;whiteSpace=wrap;html=1;rounded=1;fontSize=18;rotation=-90;" vertex="1" parent="NCR4u-MYzH2ishR-d2Pz-1">
          <mxGeometry x="912" y="394" width="24" height="208" as="geometry" />
        </mxCell>
        <mxCell id="Dm7EW4HvSjWJapq4ZpQy-7" value="First" style="text;html=1;strokeColor=none;fillColor=none;align=center;verticalAlign=middle;whiteSpace=wrap;rounded=0;fontSize=18;fontStyle=2" vertex="1" parent="NCR4u-MYzH2ishR-d2Pz-1">
          <mxGeometry x="720" y="510" width="40" height="20" as="geometry" />
        </mxCell>
        <mxCell id="Dm7EW4HvSjWJapq4ZpQy-8" value="Second" style="text;html=1;strokeColor=none;fillColor=none;align=center;verticalAlign=middle;whiteSpace=wrap;rounded=0;fontSize=18;fontStyle=2" vertex="1" parent="NCR4u-MYzH2ishR-d2Pz-1">
          <mxGeometry x="904" y="510" width="40" height="20" as="geometry" />
        </mxCell>
        <mxCell id="Dm7EW4HvSjWJapq4ZpQy-9" value="Third" style="text;html=1;strokeColor=none;fillColor=none;align=center;verticalAlign=middle;whiteSpace=wrap;rounded=0;fontSize=18;fontStyle=2" vertex="1" parent="NCR4u-MYzH2ishR-d2Pz-1">
          <mxGeometry x="560" y="510" width="40" height="20" as="geometry" />
        </mxCell>
      </root>
    </mxGraphModel>
  </diagram>
  <diagram id="Zv7tVpPOqQ2qI7h1_i_Y" name="04 - operators">
    <mxGraphModel dx="715" dy="441" grid="1" gridSize="10" guides="1" tooltips="1" connect="1" arrows="1" fold="1" page="1" pageScale="1" pageWidth="1920" pageHeight="1200" math="0" shadow="0">
      <root>
        <mxCell id="tnCK1nvqimr_X_IFObBG-0" />
        <mxCell id="tnCK1nvqimr_X_IFObBG-1" parent="tnCK1nvqimr_X_IFObBG-0" />
        <mxCell id="aW-_1c8ueP7pCGFVln9w-0" style="edgeStyle=orthogonalEdgeStyle;rounded=0;orthogonalLoop=1;jettySize=auto;html=1;exitX=1;exitY=0.5;exitDx=0;exitDy=0;strokeWidth=2;fontSize=29;" edge="1" parent="tnCK1nvqimr_X_IFObBG-1" source="aW-_1c8ueP7pCGFVln9w-1" target="aW-_1c8ueP7pCGFVln9w-8">
          <mxGeometry relative="1" as="geometry" />
        </mxCell>
        <mxCell id="aW-_1c8ueP7pCGFVln9w-1" value="=" style="rounded=0;whiteSpace=wrap;html=1;strokeWidth=1;fillColor=#dae8fc;fontSize=29;strokeColor=#6c8ebf;fontStyle=1" vertex="1" parent="tnCK1nvqimr_X_IFObBG-1">
          <mxGeometry x="580" y="190" width="120" height="60" as="geometry" />
        </mxCell>
        <mxCell id="aW-_1c8ueP7pCGFVln9w-2" style="edgeStyle=orthogonalEdgeStyle;rounded=0;orthogonalLoop=1;jettySize=auto;html=1;exitX=1;exitY=0.5;exitDx=0;exitDy=0;strokeWidth=2;fontSize=29;" edge="1" parent="tnCK1nvqimr_X_IFObBG-1" source="aW-_1c8ueP7pCGFVln9w-3" target="aW-_1c8ueP7pCGFVln9w-9">
          <mxGeometry relative="1" as="geometry" />
        </mxCell>
        <mxCell id="aW-_1c8ueP7pCGFVln9w-3" value="&amp;gt;" style="rounded=0;whiteSpace=wrap;html=1;strokeWidth=1;fillColor=#dae8fc;fontSize=29;strokeColor=#6c8ebf;fontStyle=1" vertex="1" parent="tnCK1nvqimr_X_IFObBG-1">
          <mxGeometry x="580" y="260" width="120" height="60" as="geometry" />
        </mxCell>
        <mxCell id="aW-_1c8ueP7pCGFVln9w-4" style="edgeStyle=orthogonalEdgeStyle;rounded=0;orthogonalLoop=1;jettySize=auto;html=1;exitX=1;exitY=0.5;exitDx=0;exitDy=0;strokeWidth=2;fontSize=29;" edge="1" parent="tnCK1nvqimr_X_IFObBG-1" source="aW-_1c8ueP7pCGFVln9w-5" target="aW-_1c8ueP7pCGFVln9w-10">
          <mxGeometry relative="1" as="geometry" />
        </mxCell>
        <mxCell id="aW-_1c8ueP7pCGFVln9w-5" value="&amp;lt;" style="rounded=0;whiteSpace=wrap;html=1;strokeWidth=1;fillColor=#dae8fc;fontSize=29;strokeColor=#6c8ebf;fontStyle=1" vertex="1" parent="tnCK1nvqimr_X_IFObBG-1">
          <mxGeometry x="580" y="330" width="120" height="60" as="geometry" />
        </mxCell>
        <mxCell id="aW-_1c8ueP7pCGFVln9w-6" style="edgeStyle=orthogonalEdgeStyle;rounded=0;orthogonalLoop=1;jettySize=auto;html=1;exitX=1;exitY=0.5;exitDx=0;exitDy=0;strokeWidth=2;fontSize=29;" edge="1" parent="tnCK1nvqimr_X_IFObBG-1" source="aW-_1c8ueP7pCGFVln9w-7" target="aW-_1c8ueP7pCGFVln9w-11">
          <mxGeometry relative="1" as="geometry" />
        </mxCell>
        <mxCell id="aW-_1c8ueP7pCGFVln9w-7" value="&amp;gt;=" style="rounded=0;whiteSpace=wrap;html=1;strokeWidth=1;fillColor=#dae8fc;fontSize=29;strokeColor=#6c8ebf;fontStyle=1" vertex="1" parent="tnCK1nvqimr_X_IFObBG-1">
          <mxGeometry x="580" y="400" width="120" height="60" as="geometry" />
        </mxCell>
        <mxCell id="aW-_1c8ueP7pCGFVln9w-8" value="Are the values equal?" style="rounded=0;whiteSpace=wrap;html=1;strokeWidth=1;fontSize=17;fontStyle=0" vertex="1" parent="tnCK1nvqimr_X_IFObBG-1">
          <mxGeometry x="730" y="190" width="140" height="60" as="geometry" />
        </mxCell>
        <mxCell id="aW-_1c8ueP7pCGFVln9w-9" value="Is the value on the left greater?" style="rounded=0;whiteSpace=wrap;html=1;strokeWidth=1;fontSize=17;fontStyle=0" vertex="1" parent="tnCK1nvqimr_X_IFObBG-1">
          <mxGeometry x="730" y="260" width="140" height="60" as="geometry" />
        </mxCell>
        <mxCell id="aW-_1c8ueP7pCGFVln9w-10" value="Is the value on the left less?" style="rounded=0;whiteSpace=wrap;html=1;strokeWidth=1;fontSize=17;fontStyle=0" vertex="1" parent="tnCK1nvqimr_X_IFObBG-1">
          <mxGeometry x="730" y="330" width="140" height="60" as="geometry" />
        </mxCell>
        <mxCell id="aW-_1c8ueP7pCGFVln9w-11" value="Is the value on the left greater or equal to?" style="rounded=0;whiteSpace=wrap;html=1;strokeWidth=1;fontSize=17;fontStyle=0" vertex="1" parent="tnCK1nvqimr_X_IFObBG-1">
          <mxGeometry x="730" y="400" width="140" height="60" as="geometry" />
        </mxCell>
        <mxCell id="aW-_1c8ueP7pCGFVln9w-12" value="&lt;i&gt;Comparison&lt;/i&gt; Math Operators" style="text;html=1;strokeColor=none;fillColor=none;align=center;verticalAlign=middle;whiteSpace=wrap;rounded=0;fontSize=29;" vertex="1" parent="tnCK1nvqimr_X_IFObBG-1">
          <mxGeometry x="710" y="150" width="380" height="20" as="geometry" />
        </mxCell>
        <mxCell id="aW-_1c8ueP7pCGFVln9w-13" style="edgeStyle=orthogonalEdgeStyle;rounded=0;orthogonalLoop=1;jettySize=auto;html=1;exitX=1;exitY=0.5;exitDx=0;exitDy=0;strokeWidth=2;fontSize=29;" edge="1" parent="tnCK1nvqimr_X_IFObBG-1" source="aW-_1c8ueP7pCGFVln9w-14" target="aW-_1c8ueP7pCGFVln9w-21">
          <mxGeometry relative="1" as="geometry" />
        </mxCell>
        <mxCell id="aW-_1c8ueP7pCGFVln9w-14" value="&amp;lt;=" style="rounded=0;whiteSpace=wrap;html=1;strokeWidth=1;fillColor=#dae8fc;fontSize=29;strokeColor=#6c8ebf;fontStyle=1" vertex="1" parent="tnCK1nvqimr_X_IFObBG-1">
          <mxGeometry x="900" y="190" width="120" height="60" as="geometry" />
        </mxCell>
        <mxCell id="aW-_1c8ueP7pCGFVln9w-15" style="edgeStyle=orthogonalEdgeStyle;rounded=0;orthogonalLoop=1;jettySize=auto;html=1;exitX=1;exitY=0.5;exitDx=0;exitDy=0;strokeWidth=2;fontSize=29;" edge="1" parent="tnCK1nvqimr_X_IFObBG-1" source="aW-_1c8ueP7pCGFVln9w-16" target="aW-_1c8ueP7pCGFVln9w-22">
          <mxGeometry relative="1" as="geometry" />
        </mxCell>
        <mxCell id="aW-_1c8ueP7pCGFVln9w-16" value="&amp;lt;&amp;gt;" style="rounded=0;whiteSpace=wrap;html=1;strokeWidth=1;fillColor=#dae8fc;fontSize=29;strokeColor=#6c8ebf;fontStyle=1" vertex="1" parent="tnCK1nvqimr_X_IFObBG-1">
          <mxGeometry x="900" y="260" width="120" height="60" as="geometry" />
        </mxCell>
        <mxCell id="aW-_1c8ueP7pCGFVln9w-17" style="edgeStyle=orthogonalEdgeStyle;rounded=0;orthogonalLoop=1;jettySize=auto;html=1;exitX=1;exitY=0.5;exitDx=0;exitDy=0;strokeWidth=2;fontSize=29;" edge="1" parent="tnCK1nvqimr_X_IFObBG-1" source="aW-_1c8ueP7pCGFVln9w-18" target="aW-_1c8ueP7pCGFVln9w-23">
          <mxGeometry relative="1" as="geometry" />
        </mxCell>
        <mxCell id="aW-_1c8ueP7pCGFVln9w-18" value="!=" style="rounded=0;whiteSpace=wrap;html=1;strokeWidth=1;fillColor=#dae8fc;fontSize=29;strokeColor=#6c8ebf;fontStyle=1" vertex="1" parent="tnCK1nvqimr_X_IFObBG-1">
          <mxGeometry x="900" y="330" width="120" height="60" as="geometry" />
        </mxCell>
        <mxCell id="aW-_1c8ueP7pCGFVln9w-19" style="edgeStyle=orthogonalEdgeStyle;rounded=0;orthogonalLoop=1;jettySize=auto;html=1;exitX=1;exitY=0.5;exitDx=0;exitDy=0;strokeWidth=2;fontSize=29;" edge="1" parent="tnCK1nvqimr_X_IFObBG-1" source="aW-_1c8ueP7pCGFVln9w-20" target="aW-_1c8ueP7pCGFVln9w-24">
          <mxGeometry relative="1" as="geometry" />
        </mxCell>
        <mxCell id="aW-_1c8ueP7pCGFVln9w-20" value="BETWEEN" style="rounded=0;whiteSpace=wrap;html=1;strokeWidth=1;fillColor=#dae8fc;fontSize=20;strokeColor=#6c8ebf;fontStyle=1" vertex="1" parent="tnCK1nvqimr_X_IFObBG-1">
          <mxGeometry x="900" y="400" width="120" height="60" as="geometry" />
        </mxCell>
        <mxCell id="aW-_1c8ueP7pCGFVln9w-21" value="Is the value on the left lesser or equal to?" style="rounded=0;whiteSpace=wrap;html=1;strokeWidth=1;fontSize=17;fontStyle=0" vertex="1" parent="tnCK1nvqimr_X_IFObBG-1">
          <mxGeometry x="1050" y="190" width="140" height="60" as="geometry" />
        </mxCell>
        <mxCell id="aW-_1c8ueP7pCGFVln9w-22" value="Are the values not equal?" style="rounded=0;whiteSpace=wrap;html=1;strokeWidth=1;fontSize=17;fontStyle=0" vertex="1" parent="tnCK1nvqimr_X_IFObBG-1">
          <mxGeometry x="1050" y="260" width="140" height="60" as="geometry" />
        </mxCell>
        <mxCell id="aW-_1c8ueP7pCGFVln9w-23" value="Are the values not equal?" style="rounded=0;whiteSpace=wrap;html=1;strokeWidth=1;fontSize=17;fontStyle=0" vertex="1" parent="tnCK1nvqimr_X_IFObBG-1">
          <mxGeometry x="1050" y="330" width="140" height="60" as="geometry" />
        </mxCell>
        <mxCell id="aW-_1c8ueP7pCGFVln9w-24" value="Is the value between two other values?" style="rounded=0;whiteSpace=wrap;html=1;strokeWidth=1;fontSize=17;fontStyle=0" vertex="1" parent="tnCK1nvqimr_X_IFObBG-1">
          <mxGeometry x="1050" y="400" width="140" height="60" as="geometry" />
        </mxCell>
        <mxCell id="aW-_1c8ueP7pCGFVln9w-26" style="edgeStyle=orthogonalEdgeStyle;rounded=0;orthogonalLoop=1;jettySize=auto;html=1;exitX=1;exitY=0.5;exitDx=0;exitDy=0;strokeWidth=2;fontSize=29;" edge="1" parent="tnCK1nvqimr_X_IFObBG-1" source="aW-_1c8ueP7pCGFVln9w-27" target="aW-_1c8ueP7pCGFVln9w-28">
          <mxGeometry relative="1" as="geometry" />
        </mxCell>
        <mxCell id="aW-_1c8ueP7pCGFVln9w-27" value="IN" style="rounded=0;whiteSpace=wrap;html=1;strokeWidth=1;fillColor=#dae8fc;fontSize=20;strokeColor=#6c8ebf;fontStyle=1" vertex="1" parent="tnCK1nvqimr_X_IFObBG-1">
          <mxGeometry x="580" y="470" width="120" height="60" as="geometry" />
        </mxCell>
        <mxCell id="aW-_1c8ueP7pCGFVln9w-28" value="Is the value present in a list?" style="rounded=0;whiteSpace=wrap;html=1;strokeWidth=1;fontSize=17;fontStyle=0" vertex="1" parent="tnCK1nvqimr_X_IFObBG-1">
          <mxGeometry x="730" y="470" width="140" height="60" as="geometry" />
        </mxCell>
        <mxCell id="aW-_1c8ueP7pCGFVln9w-29" style="edgeStyle=orthogonalEdgeStyle;rounded=0;orthogonalLoop=1;jettySize=auto;html=1;exitX=1;exitY=0.5;exitDx=0;exitDy=0;strokeWidth=2;fontSize=29;" edge="1" parent="tnCK1nvqimr_X_IFObBG-1" source="aW-_1c8ueP7pCGFVln9w-30" target="aW-_1c8ueP7pCGFVln9w-31">
          <mxGeometry relative="1" as="geometry" />
        </mxCell>
        <mxCell id="aW-_1c8ueP7pCGFVln9w-30" value="NOT IN" style="rounded=0;whiteSpace=wrap;html=1;strokeWidth=1;fillColor=#dae8fc;fontSize=20;strokeColor=#6c8ebf;fontStyle=1" vertex="1" parent="tnCK1nvqimr_X_IFObBG-1">
          <mxGeometry x="900" y="470" width="120" height="60" as="geometry" />
        </mxCell>
        <mxCell id="aW-_1c8ueP7pCGFVln9w-31" value="Is the value &lt;i&gt;not&lt;/i&gt;&amp;nbsp;present in a list?" style="rounded=0;whiteSpace=wrap;html=1;strokeWidth=1;fontSize=17;fontStyle=0" vertex="1" parent="tnCK1nvqimr_X_IFObBG-1">
          <mxGeometry x="1050" y="470" width="140" height="60" as="geometry" />
        </mxCell>
      </root>
    </mxGraphModel>
  </diagram>
  <diagram id="SnyHVGUOaEa21IUSJoXX" name="05 - op">
    <mxGraphModel dx="653" dy="403" grid="1" gridSize="10" guides="1" tooltips="1" connect="1" arrows="1" fold="1" page="1" pageScale="1" pageWidth="1920" pageHeight="1200" math="0" shadow="0">
      <root>
        <mxCell id="DzGI-ZzlWiuclFLCjOaf-0" />
        <mxCell id="DzGI-ZzlWiuclFLCjOaf-1" parent="DzGI-ZzlWiuclFLCjOaf-0" />
        <mxCell id="DzGI-ZzlWiuclFLCjOaf-2" value="Database" style="rounded=0;whiteSpace=wrap;html=1;shadow=1;fontSize=22;fillColor=#d5e8d4;strokeColor=#82b366;" vertex="1" parent="DzGI-ZzlWiuclFLCjOaf-1">
          <mxGeometry x="586" y="410" width="374" height="30" as="geometry" />
        </mxCell>
        <mxCell id="DzGI-ZzlWiuclFLCjOaf-3" value="" style="rounded=0;whiteSpace=wrap;html=1;shadow=1;fontSize=22;fillColor=#d5e8d4;strokeColor=#82b366;" vertex="1" parent="DzGI-ZzlWiuclFLCjOaf-1">
          <mxGeometry x="586" y="440" width="374" height="180" as="geometry" />
        </mxCell>
        <mxCell id="DzGI-ZzlWiuclFLCjOaf-4" value="cities" style="rounded=0;whiteSpace=wrap;html=1;shadow=1;fontSize=20;fillColor=#ffe6cc;strokeColor=#d79b00;" vertex="1" parent="DzGI-ZzlWiuclFLCjOaf-1">
          <mxGeometry x="598" y="450" width="350" height="25" as="geometry" />
        </mxCell>
        <mxCell id="DzGI-ZzlWiuclFLCjOaf-5" value="name&lt;br&gt;&lt;font style=&quot;font-size: 8px&quot;&gt;VARCHAR(50)&lt;/font&gt;" style="rounded=0;whiteSpace=wrap;html=1;shadow=1;fontSize=12;fillColor=#f5f5f5;strokeColor=#666666;fontColor=#333333;fontStyle=2" vertex="1" parent="DzGI-ZzlWiuclFLCjOaf-1">
          <mxGeometry x="598" y="475" width="80" height="35" as="geometry" />
        </mxCell>
        <mxCell id="DzGI-ZzlWiuclFLCjOaf-6" value="country&lt;br&gt;&lt;span style=&quot;font-size: 8px&quot;&gt;VARCHAR(50)&lt;/span&gt;" style="rounded=0;whiteSpace=wrap;html=1;shadow=1;fontSize=12;fillColor=#f5f5f5;strokeColor=#666666;fontColor=#333333;fontStyle=2" vertex="1" parent="DzGI-ZzlWiuclFLCjOaf-1">
          <mxGeometry x="678" y="475" width="80" height="35" as="geometry" />
        </mxCell>
        <mxCell id="DzGI-ZzlWiuclFLCjOaf-7" value="population&lt;br&gt;&lt;span style=&quot;font-size: 8px&quot;&gt;INTEGER&lt;/span&gt;" style="rounded=0;whiteSpace=wrap;html=1;shadow=1;fontSize=12;fillColor=#f5f5f5;strokeColor=#666666;fontColor=#333333;fontStyle=2" vertex="1" parent="DzGI-ZzlWiuclFLCjOaf-1">
          <mxGeometry x="758" y="475" width="80" height="35" as="geometry" />
        </mxCell>
        <mxCell id="DzGI-ZzlWiuclFLCjOaf-8" value="area&lt;br&gt;&lt;span style=&quot;font-size: 8px&quot;&gt;INTEGER&lt;/span&gt;" style="rounded=0;whiteSpace=wrap;html=1;shadow=1;fontSize=12;fillColor=#f5f5f5;strokeColor=#666666;fontColor=#333333;fontStyle=2" vertex="1" parent="DzGI-ZzlWiuclFLCjOaf-1">
          <mxGeometry x="838" y="475" width="110" height="35" as="geometry" />
        </mxCell>
        <mxCell id="DzGI-ZzlWiuclFLCjOaf-9" value="Tokyo" style="rounded=0;whiteSpace=wrap;html=1;shadow=1;fontSize=12;fontStyle=0" vertex="1" parent="DzGI-ZzlWiuclFLCjOaf-1">
          <mxGeometry x="598" y="510" width="80" height="25" as="geometry" />
        </mxCell>
        <mxCell id="DzGI-ZzlWiuclFLCjOaf-10" value="Japan" style="rounded=0;whiteSpace=wrap;html=1;shadow=1;fontSize=12;fontStyle=0" vertex="1" parent="DzGI-ZzlWiuclFLCjOaf-1">
          <mxGeometry x="678" y="510" width="80" height="25" as="geometry" />
        </mxCell>
        <mxCell id="DzGI-ZzlWiuclFLCjOaf-11" value="38505000" style="rounded=0;whiteSpace=wrap;html=1;shadow=1;fontSize=12;fontStyle=0" vertex="1" parent="DzGI-ZzlWiuclFLCjOaf-1">
          <mxGeometry x="758" y="510" width="80" height="25" as="geometry" />
        </mxCell>
        <mxCell id="DzGI-ZzlWiuclFLCjOaf-12" value="8223" style="rounded=0;whiteSpace=wrap;html=1;shadow=1;fontSize=12;fontStyle=0" vertex="1" parent="DzGI-ZzlWiuclFLCjOaf-1">
          <mxGeometry x="838" y="510" width="110" height="25" as="geometry" />
        </mxCell>
        <mxCell id="DzGI-ZzlWiuclFLCjOaf-13" value="Delhi" style="rounded=0;whiteSpace=wrap;html=1;shadow=1;fontSize=12;fontStyle=0" vertex="1" parent="DzGI-ZzlWiuclFLCjOaf-1">
          <mxGeometry x="598" y="535" width="80" height="25" as="geometry" />
        </mxCell>
        <mxCell id="DzGI-ZzlWiuclFLCjOaf-14" value="India" style="rounded=0;whiteSpace=wrap;html=1;shadow=1;fontSize=12;fontStyle=0" vertex="1" parent="DzGI-ZzlWiuclFLCjOaf-1">
          <mxGeometry x="678" y="535" width="80" height="25" as="geometry" />
        </mxCell>
        <mxCell id="DzGI-ZzlWiuclFLCjOaf-15" value="28125000" style="rounded=0;whiteSpace=wrap;html=1;shadow=1;fontSize=12;fontStyle=0" vertex="1" parent="DzGI-ZzlWiuclFLCjOaf-1">
          <mxGeometry x="758" y="535" width="80" height="25" as="geometry" />
        </mxCell>
        <mxCell id="DzGI-ZzlWiuclFLCjOaf-16" value="2240" style="rounded=0;whiteSpace=wrap;html=1;shadow=1;fontSize=12;fontStyle=0" vertex="1" parent="DzGI-ZzlWiuclFLCjOaf-1">
          <mxGeometry x="838" y="535" width="110" height="25" as="geometry" />
        </mxCell>
        <mxCell id="DzGI-ZzlWiuclFLCjOaf-17" value="Shanghai" style="rounded=0;whiteSpace=wrap;html=1;shadow=1;fontSize=12;fontStyle=0" vertex="1" parent="DzGI-ZzlWiuclFLCjOaf-1">
          <mxGeometry x="598" y="560" width="80" height="25" as="geometry" />
        </mxCell>
        <mxCell id="DzGI-ZzlWiuclFLCjOaf-18" value="China" style="rounded=0;whiteSpace=wrap;html=1;shadow=1;fontSize=12;fontStyle=0" vertex="1" parent="DzGI-ZzlWiuclFLCjOaf-1">
          <mxGeometry x="678" y="560" width="80" height="25" as="geometry" />
        </mxCell>
        <mxCell id="DzGI-ZzlWiuclFLCjOaf-19" value="22125000" style="rounded=0;whiteSpace=wrap;html=1;shadow=1;fontSize=12;fontStyle=0" vertex="1" parent="DzGI-ZzlWiuclFLCjOaf-1">
          <mxGeometry x="758" y="560" width="80" height="25" as="geometry" />
        </mxCell>
        <mxCell id="DzGI-ZzlWiuclFLCjOaf-20" value="4015" style="rounded=0;whiteSpace=wrap;html=1;shadow=1;fontSize=12;fontStyle=0" vertex="1" parent="DzGI-ZzlWiuclFLCjOaf-1">
          <mxGeometry x="838" y="560" width="110" height="25" as="geometry" />
        </mxCell>
        <mxCell id="DzGI-ZzlWiuclFLCjOaf-21" value="Sao Paulo" style="rounded=0;whiteSpace=wrap;html=1;shadow=1;fontSize=12;fontStyle=0" vertex="1" parent="DzGI-ZzlWiuclFLCjOaf-1">
          <mxGeometry x="598" y="585" width="80" height="25" as="geometry" />
        </mxCell>
        <mxCell id="DzGI-ZzlWiuclFLCjOaf-22" value="Brazil" style="rounded=0;whiteSpace=wrap;html=1;shadow=1;fontSize=12;fontStyle=0" vertex="1" parent="DzGI-ZzlWiuclFLCjOaf-1">
          <mxGeometry x="678" y="585" width="80" height="25" as="geometry" />
        </mxCell>
        <mxCell id="DzGI-ZzlWiuclFLCjOaf-23" value="20935000" style="rounded=0;whiteSpace=wrap;html=1;shadow=1;fontSize=12;fontStyle=0" vertex="1" parent="DzGI-ZzlWiuclFLCjOaf-1">
          <mxGeometry x="758" y="585" width="80" height="25" as="geometry" />
        </mxCell>
        <mxCell id="DzGI-ZzlWiuclFLCjOaf-24" value="3043" style="rounded=0;whiteSpace=wrap;html=1;shadow=1;fontSize=12;fontStyle=0" vertex="1" parent="DzGI-ZzlWiuclFLCjOaf-1">
          <mxGeometry x="838" y="585" width="110" height="25" as="geometry" />
        </mxCell>
        <mxCell id="0AebjOSKfutR1a-4dpg7-0" value="SELECT name, area" style="rounded=0;whiteSpace=wrap;html=1;fillColor=#dae8fc;strokeColor=#6c8ebf;fontSize=18;" vertex="1" parent="DzGI-ZzlWiuclFLCjOaf-1">
          <mxGeometry x="549" y="330" width="173" height="50" as="geometry" />
        </mxCell>
        <mxCell id="0AebjOSKfutR1a-4dpg7-1" value="FROM cities" style="rounded=0;whiteSpace=wrap;html=1;fillColor=#dae8fc;strokeColor=#6c8ebf;fontSize=18;" vertex="1" parent="DzGI-ZzlWiuclFLCjOaf-1">
          <mxGeometry x="722" y="330" width="117" height="50" as="geometry" />
        </mxCell>
        <mxCell id="0AebjOSKfutR1a-4dpg7-2" value="WHERE area = 8223" style="rounded=0;whiteSpace=wrap;html=1;fillColor=#dae8fc;strokeColor=#6c8ebf;fontSize=18;" vertex="1" parent="DzGI-ZzlWiuclFLCjOaf-1">
          <mxGeometry x="839" y="330" width="208" height="50" as="geometry" />
        </mxCell>
      </root>
    </mxGraphModel>
  </diagram>
  <diagram id="c1FUSkGvZxpzPYfVOv10" name="06 - agg">
    <mxGraphModel dx="613" dy="378" grid="1" gridSize="10" guides="1" tooltips="1" connect="1" arrows="1" fold="1" page="1" pageScale="1" pageWidth="1920" pageHeight="1200" math="0" shadow="0">
      <root>
        <mxCell id="J3KXNkyAYbhN-kjacdSO-0" />
        <mxCell id="J3KXNkyAYbhN-kjacdSO-1" parent="J3KXNkyAYbhN-kjacdSO-0" />
        <mxCell id="1p1PUccljF6CwKqMqwcv-0" value="Database" style="rounded=0;whiteSpace=wrap;html=1;shadow=1;fontSize=22;fillColor=#d5e8d4;strokeColor=#82b366;" vertex="1" parent="J3KXNkyAYbhN-kjacdSO-1">
          <mxGeometry x="650" y="410" width="374" height="30" as="geometry" />
        </mxCell>
        <mxCell id="1p1PUccljF6CwKqMqwcv-1" value="" style="rounded=0;whiteSpace=wrap;html=1;shadow=1;fontSize=22;fillColor=#d5e8d4;strokeColor=#82b366;" vertex="1" parent="J3KXNkyAYbhN-kjacdSO-1">
          <mxGeometry x="650" y="440" width="374" height="180" as="geometry" />
        </mxCell>
        <mxCell id="1p1PUccljF6CwKqMqwcv-2" value="cities" style="rounded=0;whiteSpace=wrap;html=1;shadow=1;fontSize=20;fillColor=#ffe6cc;strokeColor=#d79b00;" vertex="1" parent="J3KXNkyAYbhN-kjacdSO-1">
          <mxGeometry x="662" y="450" width="350" height="25" as="geometry" />
        </mxCell>
        <mxCell id="1p1PUccljF6CwKqMqwcv-3" value="name&lt;br&gt;&lt;font style=&quot;font-size: 8px&quot;&gt;VARCHAR(50)&lt;/font&gt;" style="rounded=0;whiteSpace=wrap;html=1;shadow=1;fontSize=12;fillColor=#f5f5f5;strokeColor=#666666;fontColor=#333333;fontStyle=2" vertex="1" parent="J3KXNkyAYbhN-kjacdSO-1">
          <mxGeometry x="662" y="475" width="80" height="35" as="geometry" />
        </mxCell>
        <mxCell id="1p1PUccljF6CwKqMqwcv-4" value="country&lt;br&gt;&lt;span style=&quot;font-size: 8px&quot;&gt;VARCHAR(50)&lt;/span&gt;" style="rounded=0;whiteSpace=wrap;html=1;shadow=1;fontSize=12;fillColor=#f5f5f5;strokeColor=#666666;fontColor=#333333;fontStyle=2" vertex="1" parent="J3KXNkyAYbhN-kjacdSO-1">
          <mxGeometry x="742" y="475" width="80" height="35" as="geometry" />
        </mxCell>
        <mxCell id="1p1PUccljF6CwKqMqwcv-5" value="population&lt;br&gt;&lt;span style=&quot;font-size: 8px&quot;&gt;INTEGER&lt;/span&gt;" style="rounded=0;whiteSpace=wrap;html=1;shadow=1;fontSize=12;fillColor=#f5f5f5;strokeColor=#666666;fontColor=#333333;fontStyle=2" vertex="1" parent="J3KXNkyAYbhN-kjacdSO-1">
          <mxGeometry x="822" y="475" width="80" height="35" as="geometry" />
        </mxCell>
        <mxCell id="1p1PUccljF6CwKqMqwcv-6" value="area&lt;br&gt;&lt;span style=&quot;font-size: 8px&quot;&gt;INTEGER&lt;/span&gt;" style="rounded=0;whiteSpace=wrap;html=1;shadow=1;fontSize=12;fillColor=#f5f5f5;strokeColor=#666666;fontColor=#333333;fontStyle=2" vertex="1" parent="J3KXNkyAYbhN-kjacdSO-1">
          <mxGeometry x="902" y="475" width="110" height="35" as="geometry" />
        </mxCell>
        <mxCell id="1p1PUccljF6CwKqMqwcv-7" value="Tokyo" style="rounded=0;whiteSpace=wrap;html=1;shadow=1;fontSize=12;fontStyle=0" vertex="1" parent="J3KXNkyAYbhN-kjacdSO-1">
          <mxGeometry x="662" y="510" width="80" height="25" as="geometry" />
        </mxCell>
        <mxCell id="1p1PUccljF6CwKqMqwcv-8" value="Japan" style="rounded=0;whiteSpace=wrap;html=1;shadow=1;fontSize=12;fontStyle=0" vertex="1" parent="J3KXNkyAYbhN-kjacdSO-1">
          <mxGeometry x="742" y="510" width="80" height="25" as="geometry" />
        </mxCell>
        <mxCell id="1p1PUccljF6CwKqMqwcv-9" value="38505000" style="rounded=0;whiteSpace=wrap;html=1;shadow=1;fontSize=12;fontStyle=0" vertex="1" parent="J3KXNkyAYbhN-kjacdSO-1">
          <mxGeometry x="822" y="510" width="80" height="25" as="geometry" />
        </mxCell>
        <mxCell id="1p1PUccljF6CwKqMqwcv-10" value="8223" style="rounded=0;whiteSpace=wrap;html=1;shadow=1;fontSize=12;fontStyle=0" vertex="1" parent="J3KXNkyAYbhN-kjacdSO-1">
          <mxGeometry x="902" y="510" width="110" height="25" as="geometry" />
        </mxCell>
        <mxCell id="1p1PUccljF6CwKqMqwcv-11" value="Shanghai" style="rounded=0;whiteSpace=wrap;html=1;shadow=1;fontSize=12;fontStyle=0" vertex="1" parent="J3KXNkyAYbhN-kjacdSO-1">
          <mxGeometry x="662" y="535" width="80" height="25" as="geometry" />
        </mxCell>
        <mxCell id="1p1PUccljF6CwKqMqwcv-12" value="United States" style="rounded=0;whiteSpace=wrap;html=1;shadow=1;fontSize=12;fontStyle=0" vertex="1" parent="J3KXNkyAYbhN-kjacdSO-1">
          <mxGeometry x="742" y="535" width="80" height="25" as="geometry" />
        </mxCell>
        <mxCell id="1p1PUccljF6CwKqMqwcv-13" value="28125000" style="rounded=0;whiteSpace=wrap;html=1;shadow=1;fontSize=12;fontStyle=0" vertex="1" parent="J3KXNkyAYbhN-kjacdSO-1">
          <mxGeometry x="822" y="535" width="80" height="25" as="geometry" />
        </mxCell>
        <mxCell id="1p1PUccljF6CwKqMqwcv-14" value="2240" style="rounded=0;whiteSpace=wrap;html=1;shadow=1;fontSize=12;fontStyle=0" vertex="1" parent="J3KXNkyAYbhN-kjacdSO-1">
          <mxGeometry x="902" y="535" width="110" height="25" as="geometry" />
        </mxCell>
        <mxCell id="1p1PUccljF6CwKqMqwcv-15" value="Shanghai" style="rounded=0;whiteSpace=wrap;html=1;shadow=1;fontSize=12;fontStyle=0" vertex="1" parent="J3KXNkyAYbhN-kjacdSO-1">
          <mxGeometry x="662" y="560" width="80" height="25" as="geometry" />
        </mxCell>
        <mxCell id="1p1PUccljF6CwKqMqwcv-16" value="China" style="rounded=0;whiteSpace=wrap;html=1;shadow=1;fontSize=12;fontStyle=0" vertex="1" parent="J3KXNkyAYbhN-kjacdSO-1">
          <mxGeometry x="742" y="560" width="80" height="25" as="geometry" />
        </mxCell>
        <mxCell id="1p1PUccljF6CwKqMqwcv-17" value="22125000" style="rounded=0;whiteSpace=wrap;html=1;shadow=1;fontSize=12;fontStyle=0" vertex="1" parent="J3KXNkyAYbhN-kjacdSO-1">
          <mxGeometry x="822" y="560" width="80" height="25" as="geometry" />
        </mxCell>
        <mxCell id="1p1PUccljF6CwKqMqwcv-18" value="4015" style="rounded=0;whiteSpace=wrap;html=1;shadow=1;fontSize=12;fontStyle=0" vertex="1" parent="J3KXNkyAYbhN-kjacdSO-1">
          <mxGeometry x="902" y="560" width="110" height="25" as="geometry" />
        </mxCell>
        <mxCell id="1p1PUccljF6CwKqMqwcv-19" value="Sao Paulo" style="rounded=0;whiteSpace=wrap;html=1;shadow=1;fontSize=12;fontStyle=0" vertex="1" parent="J3KXNkyAYbhN-kjacdSO-1">
          <mxGeometry x="662" y="585" width="80" height="25" as="geometry" />
        </mxCell>
        <mxCell id="1p1PUccljF6CwKqMqwcv-20" value="Brazil" style="rounded=0;whiteSpace=wrap;html=1;shadow=1;fontSize=12;fontStyle=0" vertex="1" parent="J3KXNkyAYbhN-kjacdSO-1">
          <mxGeometry x="742" y="585" width="80" height="25" as="geometry" />
        </mxCell>
        <mxCell id="1p1PUccljF6CwKqMqwcv-21" value="20935000" style="rounded=0;whiteSpace=wrap;html=1;shadow=1;fontSize=12;fontStyle=0" vertex="1" parent="J3KXNkyAYbhN-kjacdSO-1">
          <mxGeometry x="822" y="585" width="80" height="25" as="geometry" />
        </mxCell>
        <mxCell id="1p1PUccljF6CwKqMqwcv-22" value="3043" style="rounded=0;whiteSpace=wrap;html=1;shadow=1;fontSize=12;fontStyle=0" vertex="1" parent="J3KXNkyAYbhN-kjacdSO-1">
          <mxGeometry x="902" y="585" width="110" height="25" as="geometry" />
        </mxCell>
        <mxCell id="1p1PUccljF6CwKqMqwcv-23" value="UPDATE cities" style="rounded=0;whiteSpace=wrap;html=1;fillColor=#dae8fc;strokeColor=#6c8ebf;fontSize=18;" vertex="1" parent="J3KXNkyAYbhN-kjacdSO-1">
          <mxGeometry x="543" y="330" width="130" height="50" as="geometry" />
        </mxCell>
        <mxCell id="1p1PUccljF6CwKqMqwcv-24" value="SET population = 39505000" style="rounded=0;whiteSpace=wrap;html=1;fillColor=#dae8fc;strokeColor=#6c8ebf;fontSize=18;" vertex="1" parent="J3KXNkyAYbhN-kjacdSO-1">
          <mxGeometry x="673" y="330" width="250" height="50" as="geometry" />
        </mxCell>
        <mxCell id="1p1PUccljF6CwKqMqwcv-25" value="WHERE name = &#39;Shanghai&#39;" style="rounded=0;whiteSpace=wrap;html=1;fillColor=#dae8fc;strokeColor=#6c8ebf;fontSize=18;" vertex="1" parent="J3KXNkyAYbhN-kjacdSO-1">
          <mxGeometry x="923" y="330" width="208" height="50" as="geometry" />
        </mxCell>
      </root>
    </mxGraphModel>
  </diagram>
  <diagram name="07 - del" id="Bl_wRYgaGc1dCRQP6DMB">
    <mxGraphModel dx="589" dy="363" grid="1" gridSize="10" guides="1" tooltips="1" connect="1" arrows="1" fold="1" page="1" pageScale="1" pageWidth="1920" pageHeight="1200" math="0" shadow="0">
      <root>
        <mxCell id="hLkW7wKKGGNx--bSY_CY-0" />
        <mxCell id="hLkW7wKKGGNx--bSY_CY-1" parent="hLkW7wKKGGNx--bSY_CY-0" />
        <mxCell id="hLkW7wKKGGNx--bSY_CY-2" value="Database" style="rounded=0;whiteSpace=wrap;html=1;shadow=1;fontSize=22;fillColor=#d5e8d4;strokeColor=#82b366;" vertex="1" parent="hLkW7wKKGGNx--bSY_CY-1">
          <mxGeometry x="650" y="410" width="374" height="30" as="geometry" />
        </mxCell>
        <mxCell id="hLkW7wKKGGNx--bSY_CY-3" value="" style="rounded=0;whiteSpace=wrap;html=1;shadow=1;fontSize=22;fillColor=#d5e8d4;strokeColor=#82b366;" vertex="1" parent="hLkW7wKKGGNx--bSY_CY-1">
          <mxGeometry x="650" y="440" width="374" height="180" as="geometry" />
        </mxCell>
        <mxCell id="hLkW7wKKGGNx--bSY_CY-4" value="cities" style="rounded=0;whiteSpace=wrap;html=1;shadow=1;fontSize=20;fillColor=#ffe6cc;strokeColor=#d79b00;" vertex="1" parent="hLkW7wKKGGNx--bSY_CY-1">
          <mxGeometry x="662" y="450" width="350" height="25" as="geometry" />
        </mxCell>
        <mxCell id="hLkW7wKKGGNx--bSY_CY-5" value="name&lt;br&gt;&lt;font style=&quot;font-size: 8px&quot;&gt;VARCHAR(50)&lt;/font&gt;" style="rounded=0;whiteSpace=wrap;html=1;shadow=1;fontSize=12;fillColor=#f5f5f5;strokeColor=#666666;fontColor=#333333;fontStyle=2" vertex="1" parent="hLkW7wKKGGNx--bSY_CY-1">
          <mxGeometry x="662" y="475" width="80" height="35" as="geometry" />
        </mxCell>
        <mxCell id="hLkW7wKKGGNx--bSY_CY-6" value="country&lt;br&gt;&lt;span style=&quot;font-size: 8px&quot;&gt;VARCHAR(50)&lt;/span&gt;" style="rounded=0;whiteSpace=wrap;html=1;shadow=1;fontSize=12;fillColor=#f5f5f5;strokeColor=#666666;fontColor=#333333;fontStyle=2" vertex="1" parent="hLkW7wKKGGNx--bSY_CY-1">
          <mxGeometry x="742" y="475" width="80" height="35" as="geometry" />
        </mxCell>
        <mxCell id="hLkW7wKKGGNx--bSY_CY-7" value="population&lt;br&gt;&lt;span style=&quot;font-size: 8px&quot;&gt;INTEGER&lt;/span&gt;" style="rounded=0;whiteSpace=wrap;html=1;shadow=1;fontSize=12;fillColor=#f5f5f5;strokeColor=#666666;fontColor=#333333;fontStyle=2" vertex="1" parent="hLkW7wKKGGNx--bSY_CY-1">
          <mxGeometry x="822" y="475" width="80" height="35" as="geometry" />
        </mxCell>
        <mxCell id="hLkW7wKKGGNx--bSY_CY-8" value="area&lt;br&gt;&lt;span style=&quot;font-size: 8px&quot;&gt;INTEGER&lt;/span&gt;" style="rounded=0;whiteSpace=wrap;html=1;shadow=1;fontSize=12;fillColor=#f5f5f5;strokeColor=#666666;fontColor=#333333;fontStyle=2" vertex="1" parent="hLkW7wKKGGNx--bSY_CY-1">
          <mxGeometry x="902" y="475" width="110" height="35" as="geometry" />
        </mxCell>
        <mxCell id="hLkW7wKKGGNx--bSY_CY-9" value="Tokyo" style="rounded=0;whiteSpace=wrap;html=1;shadow=1;fontSize=12;fontStyle=0" vertex="1" parent="hLkW7wKKGGNx--bSY_CY-1">
          <mxGeometry x="662" y="510" width="80" height="25" as="geometry" />
        </mxCell>
        <mxCell id="hLkW7wKKGGNx--bSY_CY-10" value="Japan" style="rounded=0;whiteSpace=wrap;html=1;shadow=1;fontSize=12;fontStyle=0" vertex="1" parent="hLkW7wKKGGNx--bSY_CY-1">
          <mxGeometry x="742" y="510" width="80" height="25" as="geometry" />
        </mxCell>
        <mxCell id="hLkW7wKKGGNx--bSY_CY-11" value="38505000" style="rounded=0;whiteSpace=wrap;html=1;shadow=1;fontSize=12;fontStyle=0" vertex="1" parent="hLkW7wKKGGNx--bSY_CY-1">
          <mxGeometry x="822" y="510" width="80" height="25" as="geometry" />
        </mxCell>
        <mxCell id="hLkW7wKKGGNx--bSY_CY-12" value="8223" style="rounded=0;whiteSpace=wrap;html=1;shadow=1;fontSize=12;fontStyle=0" vertex="1" parent="hLkW7wKKGGNx--bSY_CY-1">
          <mxGeometry x="902" y="510" width="110" height="25" as="geometry" />
        </mxCell>
        <mxCell id="hLkW7wKKGGNx--bSY_CY-13" value="Delhi" style="rounded=0;whiteSpace=wrap;html=1;shadow=1;fontSize=12;fontStyle=0" vertex="1" parent="hLkW7wKKGGNx--bSY_CY-1">
          <mxGeometry x="662" y="535" width="80" height="25" as="geometry" />
        </mxCell>
        <mxCell id="hLkW7wKKGGNx--bSY_CY-14" value="India" style="rounded=0;whiteSpace=wrap;html=1;shadow=1;fontSize=12;fontStyle=0" vertex="1" parent="hLkW7wKKGGNx--bSY_CY-1">
          <mxGeometry x="742" y="535" width="80" height="25" as="geometry" />
        </mxCell>
        <mxCell id="hLkW7wKKGGNx--bSY_CY-15" value="28125000" style="rounded=0;whiteSpace=wrap;html=1;shadow=1;fontSize=12;fontStyle=0" vertex="1" parent="hLkW7wKKGGNx--bSY_CY-1">
          <mxGeometry x="822" y="535" width="80" height="25" as="geometry" />
        </mxCell>
        <mxCell id="hLkW7wKKGGNx--bSY_CY-16" value="2240" style="rounded=0;whiteSpace=wrap;html=1;shadow=1;fontSize=12;fontStyle=0" vertex="1" parent="hLkW7wKKGGNx--bSY_CY-1">
          <mxGeometry x="902" y="535" width="110" height="25" as="geometry" />
        </mxCell>
        <mxCell id="hLkW7wKKGGNx--bSY_CY-17" value="Shanghai" style="rounded=0;whiteSpace=wrap;html=1;shadow=1;fontSize=12;fontStyle=0" vertex="1" parent="hLkW7wKKGGNx--bSY_CY-1">
          <mxGeometry x="662" y="560" width="80" height="25" as="geometry" />
        </mxCell>
        <mxCell id="hLkW7wKKGGNx--bSY_CY-18" value="China" style="rounded=0;whiteSpace=wrap;html=1;shadow=1;fontSize=12;fontStyle=0" vertex="1" parent="hLkW7wKKGGNx--bSY_CY-1">
          <mxGeometry x="742" y="560" width="80" height="25" as="geometry" />
        </mxCell>
        <mxCell id="hLkW7wKKGGNx--bSY_CY-19" value="22125000" style="rounded=0;whiteSpace=wrap;html=1;shadow=1;fontSize=12;fontStyle=0" vertex="1" parent="hLkW7wKKGGNx--bSY_CY-1">
          <mxGeometry x="822" y="560" width="80" height="25" as="geometry" />
        </mxCell>
        <mxCell id="hLkW7wKKGGNx--bSY_CY-20" value="4015" style="rounded=0;whiteSpace=wrap;html=1;shadow=1;fontSize=12;fontStyle=0" vertex="1" parent="hLkW7wKKGGNx--bSY_CY-1">
          <mxGeometry x="902" y="560" width="110" height="25" as="geometry" />
        </mxCell>
        <mxCell id="hLkW7wKKGGNx--bSY_CY-21" value="Sao Paulo" style="rounded=0;whiteSpace=wrap;html=1;shadow=1;fontSize=12;fontStyle=0" vertex="1" parent="hLkW7wKKGGNx--bSY_CY-1">
          <mxGeometry x="662" y="585" width="80" height="25" as="geometry" />
        </mxCell>
        <mxCell id="hLkW7wKKGGNx--bSY_CY-22" value="Brazil" style="rounded=0;whiteSpace=wrap;html=1;shadow=1;fontSize=12;fontStyle=0" vertex="1" parent="hLkW7wKKGGNx--bSY_CY-1">
          <mxGeometry x="742" y="585" width="80" height="25" as="geometry" />
        </mxCell>
        <mxCell id="hLkW7wKKGGNx--bSY_CY-23" value="20935000" style="rounded=0;whiteSpace=wrap;html=1;shadow=1;fontSize=12;fontStyle=0" vertex="1" parent="hLkW7wKKGGNx--bSY_CY-1">
          <mxGeometry x="822" y="585" width="80" height="25" as="geometry" />
        </mxCell>
        <mxCell id="hLkW7wKKGGNx--bSY_CY-24" value="3043" style="rounded=0;whiteSpace=wrap;html=1;shadow=1;fontSize=12;fontStyle=0" vertex="1" parent="hLkW7wKKGGNx--bSY_CY-1">
          <mxGeometry x="902" y="585" width="110" height="25" as="geometry" />
        </mxCell>
        <mxCell id="hLkW7wKKGGNx--bSY_CY-25" value="DELETE FROM cities" style="rounded=0;whiteSpace=wrap;html=1;fillColor=#dae8fc;strokeColor=#6c8ebf;fontSize=18;" vertex="1" parent="hLkW7wKKGGNx--bSY_CY-1">
          <mxGeometry x="620" y="330" width="215" height="50" as="geometry" />
        </mxCell>
        <mxCell id="hLkW7wKKGGNx--bSY_CY-27" value="WHERE name &amp;lt;&amp;gt; &#39;Tokyo&#39;" style="rounded=0;whiteSpace=wrap;html=1;fillColor=#dae8fc;strokeColor=#6c8ebf;fontSize=18;" vertex="1" parent="hLkW7wKKGGNx--bSY_CY-1">
          <mxGeometry x="835" y="330" width="225" height="50" as="geometry" />
        </mxCell>
      </root>
    </mxGraphModel>
  </diagram>
  <diagram id="RsdrkiB0C4Lvm4pEJVBb" name="Page-8">
    <mxGraphModel grid="1" page="1" gridSize="10" guides="1" tooltips="1" connect="1" arrows="1" fold="1" pageScale="1" pageWidth="827" pageHeight="1169" math="0" shadow="0">
      <root>
        <mxCell id="0" />
        <mxCell id="1" parent="0" />
      </root>
    </mxGraphModel>
  </diagram>
</mxfile>
